PathFileType	4	(X/Y/Z)	Run_300 01
DataRate	CameraRate	NumFrames	NumMarkers	Units	OrigDataRate	OrigDataStartFrame	OrigNumFrames
120	120	5	42	mm	120	47	128
Frame#	Time	LASI			RASI			LPSI			RPSI			RTH1			RTH3			LTH1			LTH2			LTH3			RTB1			RTB2			RTB3			LTB1			LTB2			LTB3			RCAL			RTOE			RMT5			LCAL			LTOE			LMT5			LACR			RACR			CLAV			C7			RUA1			RUA2			RUA3			RLEL			RMEL			LUA1			LUA2			LUA3			LLEL			LMEL			RFAsuperior			RFAradius			RFAulna			LFAsuperior			LFAradius			LFAulna			RTH2			
		X1	Y1	Z1	X2	Y2	Z2	X3	Y3	Z3	X4	Y4	Z4	X5	Y5	Z5	X6	Y6	Z6	X7	Y7	Z7	X8	Y8	Z8	X9	Y9	Z9	X10	Y10	Z10	X11	Y11	Z11	X12	Y12	Z12	X13	Y13	Z13	X14	Y14	Z14	X15	Y15	Z15	X16	Y16	Z16	X17	Y17	Z17	X18	Y18	Z18	X19	Y19	Z19	X20	Y20	Z20	X21	Y21	Z21	X22	Y22	Z22	X23	Y23	Z23	X24	Y24	Z24	X25	Y25	Z25	X26	Y26	Z26	X27	Y27	Z27	X28	Y28	Z28	X29	Y29	Z29	X30	Y30	Z30	X31	Y31	Z31	X32	Y32	Z32	X33	Y33	Z33	X34	Y34	Z34	X35	Y35	Z35	X36	Y36	Z36	X37	Y37	Z37	X38	Y38	Z38	X39	Y39	Z39	X40	Y40	Z40	X41	Y41	Z41	X42	Y42	Z42	

33	0.416667	1066.849672	1043.62226	-443.587936	1065.550893	1019.405081	-212.645739	904.8994719999999	1086.306093	-378.706972	905.377055	1080.913963	-279.362153	961.423179	875.518811	-158.838745	873.9394	658.144306	-207.023975	1062.25364	902.783629	-511.0947	1176.591716	855.031875	-491.905269	1176.871507	710.878831	-481.38203	805.307961	426.164385	-269.511716	729.506248	412.048554	-206.749543	681.59103	293.932138	-269.090899	1271.806639	497.757626	-429.184538	1200.986217	413.843338	-471.881282	1197.905258	313.750103	-406.184836	510.217252	277.232463	-284.8271	620.076093	103.334657	-327.174477	584.711874	82.159643	-225.37985	1049.4604	229.24886	-386.608038	1240.041413	150.510484	-353.526756	1216.300531	109.073847	-449.874195	1009.651394	1528.17178	-487.456073	1084.271855	1501.133973	-138.524205	1119.506783	1463.128573	-310.650852	1008.057738	1546.891714	-314.672798	1063.999294	1418.338012	-91.510553	1065.21323	1327.873787	-105.273449	979.423051	1334.752218	-73.965554	957.601215	1218.638879	-50.011584	925.532117	1216.661724	-117.163193	943.317861	1492.688386	-527.17356	883.803631	1461.707977	-477.542664	883.6392080000001	1407.64464	-547.094678	768.0593260000001	1354.68933	-549.068976	763.225355	1354.432343	-473.769446	1053.43881	1209.548411	-72.097222	1196.50268	1161.793053	-169.427292	1174.039886	1098.117288	-161.562904	833.706911	1306.595092	-567.804918	991.748645	1193.857997	-529.667947	942.06539	1149.5915	-543.513787	968.647015	719.93706	-195.935304	
34	0.425	1067.179612	1047.051137	-442.628178	1066.948643	1023.598728	-212.056585	906.940707	1091.058973	-378.450725	907.0045249999999	1085.657938	-279.020533	961.743187	880.432935	-158.252769	873.166422	663.263766	-208.568313	1060.492855	903.819629	-510.144775	1173.601527	853.849375	-493.718347	1172.112842	709.8559770000001	-479.897647	801.412591	432.137156	-270.803198	726.663469	419.232838	-206.614066	674.615202	302.600963	-268.694785	1276.251722	497.535979	-428.549161	1212.956519	408.173949	-471.287654	1216.28269	308.467799	-405.156564	505.242779	293.355845	-280.576176	603.614067	113.164019	-326.51912	569.2275529999999	92.905545	-225.243286	1074.343854	214.165431	-386.273159	1269.387007	148.464533	-350.427076	1248.875719	103.964641	-447.179586	1010.399693	1531.16462	-488.376461	1085.63365	1505.493283	-140.112594	1120.231316	1466.626768	-311.820069	1009.018852	1550.333276	-315.819645	1065.651548	1423.784795	-92.457381	1066.888874	1333.549328	-104.861397	981.010183	1340.548742	-74.281548	959.16644	1224.220377	-49.156264	925.007784	1222.089201	-115.984531	943.726521	1497.132375	-527.493368	884.677574	1466.170989	-477.390081	883.14824	1412.53516	-547.468451	767.307351	1359.63524	-548.4758	762.823995	1359.618975	-473.120902	1054.595135	1215.1789	-72.398487	1197.00881	1167.820585	-171.143374	1175.028255	1104.06367	-163.215658	832.9223930000001	1312.092784	-567.6106119999999	992.054681	1200.798298	-530.515167	943.022662	1155.826414	-543.693406	967.579294	724.309159	-196.071397	
35	0.433333	1067.437056	1049.543482	-441.180426	1068.009405	1027.336837	-211.128098	908.439591	1094.723661	-378.286669	908.334353	1089.507584	-278.700006	961.966275	884.836675	-157.954685	874.414386	666.706476	-209.933712	1057.86063	902.092657	-509.027786	1169.753252	850.9070390000001	-495.210395	1166.675683	707.5489250000001	-478.480701	798.933208	436.827244	-272.517703	725.493337	425.427709	-207.017959	668.057952	311.331785	-268.595499	1279.18106	496.607097	-427.130029	1223.735606	402.592665	-470.237492	1233.030265	303.723608	-403.799396	499.629501	309.229487	-276.443072	588.03139	124.683542	-326.3391	554.709964	104.803254	-225.288074	1098.066783	200.261035	-385.581547	1296.660101	147.695565	-347.926416	1279.523733	100.67772	-444.853514	1011.381227	1533.310446	-489.612475	1086.646751	1508.964479	-141.590792	1120.970242	1469.412273	-312.94642	1010.042423	1553.202848	-317.085169	1066.692107	1428.163836	-93.386777	1068.092128	1338.31687	-104.504564	982.213037	1345.010124	-74.664783	960.263131	1228.837185	-48.58816	924.955591	1226.885438	-114.916699	944.4827	1500.400996	-528.211856	885.656597	1469.574665	-477.708366	883.06591	1416.277698	-548.122102	766.9342799999999	1363.519156	-548.199243	762.801944	1363.635696	-472.872549	1055.313658	1219.274409	-72.598358	1197.039521	1171.879963	-172.469473	1175.232324	1108.179433	-164.358774	832.586499	1316.504882	-567.651434	992.72415	1206.701365	-531.297406	944.375166	1161.04417	-544.039683	968.189778	727.676422	-196.466295	
36	0.441667	1067.844971	1051.221627	-439.465724	1068.8383	1030.535593	-209.954559	909.232401	1097.152701	-378.122743	909.430437	1092.370891	-278.412211	962.307247	888.481264	-157.969039	877.777381	668.372894	-211.038336	1054.485801	898.394552	-507.856177	1165.76869	846.814487	-496.367583	1161.032413	704.281295	-477.259143	797.659978	440.325869	-274.352224	725.516664	430.881766	-207.67622	661.869316	320.263621	-268.590212	1280.514735	494.867289	-425.306377	1232.675878	397.228713	-468.938054	1247.875548	299.515502	-402.342912	493.30914	324.933251	-272.620147	573.816211	137.788484	-326.360433	541.53412	117.83424	-225.284387	1120.163551	187.795303	-384.358589	1321.431999	147.966108	-346.194576	1307.339226	98.60088	-442.84035	1012.607776	1534.663533	-491.129191	1087.38087	1511.590348	-142.987541	1121.735304	1471.503976	-314.044963	1011.127048	1555.456973	-318.463395	1067.219873	1431.483882	-94.310424	1068.836502	1342.060375	-104.327568	982.9829590000001	1348.235723	-75.19813000000001	960.844423	1232.555129	-48.342314	925.273997	1231.12479	-114.065076	945.542102	1502.490285	-529.37928	886.7257	1471.91603	-478.511248	883.420627	1418.843226	-549.039974	766.962958	1366.344888	-548.283876	763.218319	1366.490026	-473.038327	1055.623558	1221.894058	-72.68979299999999	1196.580748	1173.933819	-173.392046	1174.6008	1110.451442	-164.809838	832.736564	1319.839791	-567.94454	993.794822	1211.523425	-532.022927	946.152677	1165.196334	-544.546924	970.795451	729.821702	-197.309019	
37	0.45	1068.476774	1052.182412	-437.856115	1069.538078	1033.085167	-208.650984	909.3751600000001	1098.230706	-377.883153	910.335695	1094.162712	-278.202375	963.253107	890.910959	-158.235475	883.21314	668.345653	-211.916719	1050.67633	893.865711	-506.773889	1162.539821	842.161561	-497.279528	1155.730044	700.37855	-476.419876	797.483708	442.847775	-276.096478	726.342786	435.97042	-208.308348	656.227489	329.45036	-268.536084	1280.413264	492.213145	-423.450219	1239.387539	392.127159	-467.595385	1260.600644	295.800033	-400.963424	486.78708	340.674148	-269.346587	561.447862	152.139894	-326.262932	530.033483	131.890966	-225.049904	1140.036728	177.107171	-382.652161	1343.222244	148.7895	-344.967723	1331.463855	97.02851800000001	-440.970243	1014.081813	1535.25634	-492.871603	1087.950632	1513.427396	-144.343177	1122.533167	1472.888614	-315.144897	1012.254303	1557.046162	-319.953976	1067.39526	1433.794138	-95.26817200000001	1069.169867	1344.707092	-104.462971	983.288891	1350.479766	-75.924734	960.859459	1235.487028	-48.421127	925.508449	1234.726907	-113.610944	946.857323	1503.440404	-530.998564	887.920667	1473.201245	-479.759387	884.216952	1420.231219	-550.189708	767.42092	1368.104945	-548.810172	764.059404	1368.18706	-473.651992	1055.509065	1223.170738	-72.68572	1195.606976	1173.987128	-173.919495	1173.067668	1110.902064	-164.499989	833.4151879999999	1322.113353	-568.51321	995.299314	1215.221928	-532.672944	948.395245	1168.230946	-545.183159	975.442871	730.670428	-198.840151	
